#!OML:ASF H:\MichaelJackson\Top Level 1\Subject 1\Session 1\male.ASF
:FULLY-SPECIFIED
:DEGREES
540
root 7.17028 16.5103 29.5019 -4.58594 23.3779 1.25025
lowerback 14.4534 -4.14461 -4.36118
upperback 3.70029 -6.09638 -0.635367
thorax -3.76101 -2.97555 2.81659
lowerneck -7.26473 -5.87639 -1.09823
upperneck 1.63151 -7.84198 2.78018
head 1.91214 -3.84888 0.752881
rclavicle 3.16068e-014 -5.56597e-015
rhumerus -48.9598 0.124798 -92.4483
rradius 89.0452
rwrist 4.17611
rhand -38.7128 -41.8638
rfingers 7.12502
rthumb -11.7267 -431.516
lclavicle 3.16068e-014 -5.56597e-015
lhumerus -52.7249 -37.0038 112.24
lradius 80.628
lwrist 20.5546
lhand 8.92015 15.1558
lfingers 7.12502
lthumb 34.1014 41.917
rfemur -82.7566 -9.73919 20.0773
rtibia 120.741
rfoot 18.6788 27.1437
rtoes -14.6367
lfemur -17.3631 14.3694 -21.1542
ltibia 41.6922
lfoot -20.8577 -11.6154
ltoes 9.3035
541
root 7.17917 16.5516 29.508 -4.82019 23.674 0.619821
lowerback 14.3963 -4.25878 -3.86727
upperback 3.65365 -6.15738 -0.258014
thorax -3.78507 -3.00836 2.94433
lowerneck -7.37113 -5.91871 -1.02736
upperneck 1.64332 -7.89811 2.62978
head 1.92534 -3.87907 0.688295
rclavicle -8.39865e-014 1.27222e-014
rhumerus -48.6314 -0.464832 -91.7032
rradius 88.9483
rwrist 5.05144
rhand -38.9777 -42.909
rfingers 7.12502
rthumb -11.9821 -432.546
lclavicle -8.39865e-014 1.27222e-014
lhumerus -52.2048 -37.3374 112.537
lradius 80.2886
lwrist 20.7903
lhand 9.35196 15.8685
lfingers 7.12502
lthumb 34.5114 42.5372
rfemur -82.707 -10.8149 18.2098
rtibia 119.816
rfoot 20.1481 24.0151
rtoes -11.3767
lfemur -16.9773 14.0665 -20.5583
ltibia 40.9821
lfoot -20.6581 -11.2732
ltoes 8.48908
542
root 7.189 16.5947 29.5102 -5.00981 23.801 0.0138609
lowerback 14.3448 -4.3213 -3.38366
upperback 3.60757 -6.15249 0.109467
thorax -3.8164 -3.00832 3.05743
lowerneck -7.49978 -5.95513 -0.936768
upperneck 1.63556 -7.9479 2.4843
head 1.93524 -3.9059 0.621904
rclavicle 5.60324e-014 -9.74045e-015
rhumerus -48.3191 -0.90292 -91.0122
rradius 88.9207
rwrist 5.84953
rhand -39.0444 -43.5039
rfingers 7.12502
rthumb -12.0465 -433.137
lclavicle 5.60324e-014 -9.74045e-015
lhumerus -51.6805 -37.6769 112.829
lradius 79.9521
lwrist 20.9208
lhand 9.76088 16.499
lfingers 7.12502
lthumb 34.8995 43.0785
rfemur -82.3499 -11.5193 16.2852
rtibia 118.037
rfoot 21.3592 20.3779
rtoes -7.40231
lfemur -16.6137 13.8413 -19.9996
ltibia 40.2467
lfoot -20.4339 -10.5631
ltoes 7.33514
543
root 7.19981 16.6393 29.5087 -5.14062 23.7755 -0.565127
lowerback 14.2924 -4.34381 -2.90302
upperback 3.55626 -6.096 0.463795
thorax -3.85745 -2.98243 3.15044
lowerneck -7.64404 -5.98062 -0.8303
upperneck 1.61187 -7.98471 2.34737
head 1.94214 -3.92603 0.555922
rclavicle -1.09332e-014 -9.34288e-015
rhumerus -48.0236 -1.1816 -90.3785
rradius 88.9648
rwrist 6.59013
rhand -38.9012 -43.5984
rfingers 7.12502
rthumb -11.9084 -433.24
lclavicle -1.09332e-014 -9.34288e-015
lhumerus -51.1637 -38.0073 113.116
lradius 79.6033
lwrist 20.8998
lhand 10.1423 16.9827
lfingers 7.12502
lthumb 35.2613 43.4774
rfemur -81.6831 -11.8359 14.3291
rtibia 115.409
rfoot 22.1295 16.4484
rtoes -2.93649
lfemur -16.2862 13.7018 -19.4834
ltibia 39.4997
lfoot -20.1572 -9.4062
ltoes 5.84762
544
root 7.21169 16.6851 29.5037 -5.19459 23.6242 -1.10031
lowerback 14.2299 -4.33762 -2.43235
upperback 3.49292 -6.00409 0.797618
thorax -3.90896 -2.93865 3.2216
lowerneck -7.79685 -5.99065 -0.704624
upperneck 1.58377 -8.00314 2.21618
head 1.94823 -3.93678 0.48919
rclavicle 5.20195e-014 -7.7526e-015
rhumerus -47.7482 -1.30523 -89.8037
rradius 89.0817
rwrist 7.27262
rhand -38.5337 -43.1501
rfingers 7.12502
rthumb -11.554 -432.812
lclavicle 5.20195e-014 -7.7526e-015
lhumerus -50.6754 -38.3141 113.4
lradius 79.2349
lwrist 20.7214
lhand 10.4923 17.2804
lfingers 7.12502
lthumb 35.5932 43.6958
rfemur -80.7124 -11.7989 12.3435
rtibia 111.958
rfoot 22.3552 12.4738
rtoes 1.71598
lfemur -16.0082 13.6562 -19.0302
ltibia 38.7597
lfoot -19.792 -7.74572
ltoes 4.11913
545
root 7.22471 16.7311 29.4958 -5.1701 23.3763 -1.60235
lowerback 14.1543 -4.31819 -1.95654
upperback 3.41323 -5.89499 1.1126
thorax -3.9739 -2.88607 3.26718
lowerneck -7.96459 -5.9824 -0.566283
upperneck 1.56519 -7.99915 2.08813
head 1.95948 -3.93608 0.421686
rclavicle 1.97915e-014 6.11263e-015
rhumerus -47.485 -1.27496 -89.2828
rradius 89.2768
rwrist 7.83289
rhand -37.8911 -42.2001
rfingers 7.12502
rthumb -10.9343 -431.895
lclavicle 1.97915e-014 6.11263e-015
lhumerus -50.2295 -38.5821 113.683
lradius 78.8466
lwrist 20.4026
lhand 10.7936 17.4109
lfingers 7.12502
lthumb 35.8786 43.7571
rfemur -79.4412 -11.465 10.3517
rtibia 107.734
rfoot 21.9553 8.77595
rtoes 5.8039
lfemur -15.7959 13.7134 -18.632
ltibia 38.0551
lfoot -19.2986 -5.57916
ltoes 2.33404
